<svg xmlns="http://www.w3.org/2000/svg" viewBox="0 0 1036.6 129.88"><defs><style>.cls-1{fill:#fff;}.cls-1,.cls-2{stroke:gray;stroke-miterlimit:10;}.cls-2{fill:#fffc79;}</style></defs><title>Asset 1</title><g id="Layer_2" data-name="Layer 2"><g id="Layer_1-2" data-name="Layer 1"><path class="cls-1" d="M.5,19.51V.5H84.74v19H53.92v83.81H31.32V19.51Z"/><path class="cls-1" d="M78.84,50a34,34,0,0,1,19.87-20.3,42.53,42.53,0,0,1,15.84-2.81,43.13,43.13,0,0,1,15.91,2.81A33.88,33.88,0,0,1,150.4,50a45.58,45.58,0,0,1,2.74,16.2,45,45,0,0,1-2.74,16.13,34.84,34.84,0,0,1-7.77,12.31,33.84,33.84,0,0,1-12.17,7.85,44.19,44.19,0,0,1-15.91,2.74,43.57,43.57,0,0,1-15.84-2.74,33.9,33.9,0,0,1-12.1-7.85,34.84,34.84,0,0,1-7.77-12.31A45,45,0,0,1,76.1,66.16,45.58,45.58,0,0,1,78.84,50ZM97.41,74.88a23.38,23.38,0,0,0,3,7.63,15.78,15.78,0,0,0,5.55,5.4,16.94,16.94,0,0,0,8.64,2,17.37,17.37,0,0,0,8.71-2,15.73,15.73,0,0,0,5.62-5.4,23.38,23.38,0,0,0,3-7.63,44.08,44.08,0,0,0,.86-8.72,45.14,45.14,0,0,0-.86-8.78,22.54,22.54,0,0,0-3-7.63,16.44,16.44,0,0,0-5.62-5.4,16.87,16.87,0,0,0-8.71-2.09,15.75,15.75,0,0,0-14.19,7.49,22.54,22.54,0,0,0-3,7.63,45.14,45.14,0,0,0-.86,8.78A44.08,44.08,0,0,0,97.41,74.88Z"/><path class="cls-1" d="M185.83,28.87v9.5h.28a22.5,22.5,0,0,1,9.51-8.78,29.2,29.2,0,0,1,12.67-2.74,32.32,32.32,0,0,1,15.12,3.31A31.23,31.23,0,0,1,233.92,39a37,37,0,0,1,6.19,12.74,56.42,56.42,0,0,1,2,15.19,50.87,50.87,0,0,1-2,14.4A36.47,36.47,0,0,1,234,93.52a30.15,30.15,0,0,1-10.22,8.5,30.77,30.77,0,0,1-14.33,3.17,29,29,0,0,1-12.74-2.81,24.12,24.12,0,0,1-9.58-8.28h-.29v35.28H166.39V28.87Zm26.57,59a16.58,16.58,0,0,0,5.47-5.26,21.76,21.76,0,0,0,2.95-7.56,44.38,44.38,0,0,0,.86-8.78,41.65,41.65,0,0,0-.93-8.79,23.54,23.54,0,0,0-3.1-7.7,17.33,17.33,0,0,0-5.54-5.47,15.52,15.52,0,0,0-8.28-2.09,15.82,15.82,0,0,0-8.43,2.09,16.8,16.8,0,0,0-5.47,5.4,22.33,22.33,0,0,0-3,7.63,45.15,45.15,0,0,0-.87,8.93,41.63,41.63,0,0,0,.94,8.78,22.65,22.65,0,0,0,3,7.56,17.48,17.48,0,0,0,22.33,5.26Z"/><path class="cls-1" d="M275.39.5V103.32H255V.5Z"/><path class="cls-1" d="M313.41,85.46q4.6,4.47,13.25,4.46a18.24,18.24,0,0,0,10.65-3.09q4.47-3.1,5.47-6.55h18q-4.32,13.38-13.24,19.15t-21.6,5.76a42.53,42.53,0,0,1-15.84-2.81,32.89,32.89,0,0,1-12-8A36,36,0,0,1,290.58,82a45.47,45.47,0,0,1-2.66-15.84,43.31,43.31,0,0,1,2.74-15.55,36,36,0,0,1,19.8-20.73,38.45,38.45,0,0,1,15.48-3,35.53,35.53,0,0,1,16.56,3.67,33.15,33.15,0,0,1,11.59,9.87,40.54,40.54,0,0,1,6.55,14.11,52.79,52.79,0,0,1,1.44,16.56H308.37Q308.81,81,313.41,85.46Zm23.11-39.17q-3.67-4-11.16-4a17.67,17.67,0,0,0-8.13,1.66A15.42,15.42,0,0,0,312,48a15,15,0,0,0-2.74,5.18,23.66,23.66,0,0,0-.93,4.9h33.26Q340.19,50.33,336.52,46.29Z"/><path class="cls-1" d="M391.38,84.81a11.9,11.9,0,0,0,3.53,3.89,15.11,15.11,0,0,0,5,2.23,23.34,23.34,0,0,0,5.83.72,21.67,21.67,0,0,0,4.54-.5,15.66,15.66,0,0,0,4.32-1.59,9.94,9.94,0,0,0,3.24-2.88,7.58,7.58,0,0,0,1.29-4.53q0-4.61-6.12-6.91a120.94,120.94,0,0,0-17.06-4.61q-4.47-1-8.71-2.38a29.38,29.38,0,0,1-7.56-3.6A17.51,17.51,0,0,1,374.32,59a15.88,15.88,0,0,1-2-8.28q0-7.2,2.81-11.81a20.59,20.59,0,0,1,7.42-7.27,32.33,32.33,0,0,1,10.37-3.75,63.79,63.79,0,0,1,11.8-1.08A59.62,59.62,0,0,1,416.44,28a31.22,31.22,0,0,1,10.15,3.89A23.5,23.5,0,0,1,434,39.16a24.49,24.49,0,0,1,3.52,11.45H418.1q-.44-5.89-4.47-8a20.44,20.44,0,0,0-9.5-2.09,34,34,0,0,0-3.75.22,12.36,12.36,0,0,0-3.67.93,7.76,7.76,0,0,0-2.81,2.09,5.52,5.52,0,0,0-1.15,3.67,5.59,5.59,0,0,0,2,4.47A15.51,15.51,0,0,0,400,54.72a66.35,66.35,0,0,0,7.42,1.94c2.78.58,5.62,1.2,8.5,1.87A86.86,86.86,0,0,1,424.65,61a28.55,28.55,0,0,1,7.56,3.82,18.44,18.44,0,0,1,5.32,5.9,17.27,17.27,0,0,1,2,8.71A22.64,22.64,0,0,1,428.9,99.72,31.63,31.63,0,0,1,418,104a63,63,0,0,1-12.45,1.23,61.2,61.2,0,0,1-12.67-1.3,33.23,33.23,0,0,1-11-4.32,24.58,24.58,0,0,1-7.92-8,25,25,0,0,1-3.39-12.46H390A11.23,11.23,0,0,0,391.38,84.81Z"/><path class="cls-1" d="M468.71,84.81a11.9,11.9,0,0,0,3.53,3.89,15,15,0,0,0,5,2.23,23.34,23.34,0,0,0,5.83.72,21.51,21.51,0,0,0,4.53-.5,15.42,15.42,0,0,0,4.32-1.59,9.74,9.74,0,0,0,3.24-2.88,7.52,7.52,0,0,0,1.3-4.53q0-4.61-6.12-6.91a120.76,120.76,0,0,0-17.07-4.61c-3-.67-5.88-1.46-8.71-2.38a29.7,29.7,0,0,1-7.56-3.6A17.48,17.48,0,0,1,451.65,59a15.88,15.88,0,0,1-2-8.28q0-7.2,2.81-11.81a20.64,20.64,0,0,1,7.41-7.27,32.42,32.42,0,0,1,10.37-3.75A64,64,0,0,1,482,26.85,59.7,59.7,0,0,1,493.77,28a31.22,31.22,0,0,1,10.15,3.89,23.47,23.47,0,0,1,7.41,7.27,24.38,24.38,0,0,1,3.53,11.45H495.42q-.44-5.89-4.46-8a20.46,20.46,0,0,0-9.51-2.09,33.73,33.73,0,0,0-3.74.22,12.28,12.28,0,0,0-3.67.93,7.67,7.67,0,0,0-2.81,2.09,5.52,5.52,0,0,0-1.15,3.67,5.62,5.62,0,0,0,2,4.47,15.66,15.66,0,0,0,5.26,2.81,66.35,66.35,0,0,0,7.42,1.94q4.17.87,8.49,1.87A85.39,85.39,0,0,1,502,61a28.55,28.55,0,0,1,7.56,3.82,18.36,18.36,0,0,1,5.33,5.9,17.37,17.37,0,0,1,2,8.71,22.62,22.62,0,0,1-10.66,20.31A31.57,31.57,0,0,1,495.35,104a63.05,63.05,0,0,1-12.46,1.23,61.27,61.27,0,0,1-12.67-1.3,33.17,33.17,0,0,1-11-4.32,24.71,24.71,0,0,1-7.93-8,25,25,0,0,1-3.38-12.46h19.44A11.23,11.23,0,0,0,468.71,84.81Z"/><path class="cls-2" d="M579.37.5a63.56,63.56,0,0,1,13.39,1.3A28.93,28.93,0,0,1,603.13,6a19.86,19.86,0,0,1,6.7,7.85A27.68,27.68,0,0,1,612.2,26q0,7.77-3.52,13a25.67,25.67,0,0,1-10.45,8.49q9.51,2.75,14.19,9.58a28.5,28.5,0,0,1,4.68,16.49,28.36,28.36,0,0,1-3,13.46,26.21,26.21,0,0,1-8.14,9.29,36,36,0,0,1-11.67,5.33,52.58,52.58,0,0,1-13.46,1.73H531V.5Zm-2.88,41.62a16.27,16.27,0,0,0,9.94-2.88q3.89-2.88,3.88-9.36A12,12,0,0,0,589,24a9.73,9.73,0,0,0-3.46-3.6,14.71,14.71,0,0,0-5-1.8,33.67,33.67,0,0,0-5.84-.5H553.6v24Zm1.3,43.63a30.26,30.26,0,0,0,6.33-.65,15.48,15.48,0,0,0,5.33-2.16,10.88,10.88,0,0,0,3.67-4.1,14.18,14.18,0,0,0,1.37-6.63q0-7.92-4.46-11.3t-11.81-3.39H553.6V85.75Z"/><path class="cls-2" d="M629.34,51.76a23.79,23.79,0,0,1,3.6-11.95A24.49,24.49,0,0,1,641,32.18a35.07,35.07,0,0,1,11-4.1,62.3,62.3,0,0,1,12.31-1.23,84.84,84.84,0,0,1,11.38.79,35.12,35.12,0,0,1,10.51,3.1A20.64,20.64,0,0,1,694,37.15q3,4.1,3,10.87V86.76a78.45,78.45,0,0,0,.57,9.64,17.56,17.56,0,0,0,2,6.92H678.87a30.54,30.54,0,0,1-.93-3.53,31.77,31.77,0,0,1-.51-3.67,26.55,26.55,0,0,1-11.52,7,46.3,46.3,0,0,1-13.53,2,36.36,36.36,0,0,1-9.94-1.3,22.72,22.72,0,0,1-8.06-4A18.64,18.64,0,0,1,629,93,23.35,23.35,0,0,1,627,83a21.7,21.7,0,0,1,2.24-10.44A18.53,18.53,0,0,1,635,66a25.71,25.71,0,0,1,8.06-3.67,87.45,87.45,0,0,1,9.14-2c3.08-.48,6.1-.86,9.08-1.15A56,56,0,0,0,669.23,58a14,14,0,0,0,5.47-2.52,5.58,5.58,0,0,0,1.87-4.83,10.8,10.8,0,0,0-1.08-5.25,7.93,7.93,0,0,0-2.88-3,11.31,11.31,0,0,0-4.18-1.44,34,34,0,0,0-5.11-.36q-6,0-9.5,2.59t-4,8.64Zm47.23,15.12a9,9,0,0,1-3.24,1.8,30.71,30.71,0,0,1-4.18,1.08c-1.49.29-3,.53-4.68.72s-3.26.44-4.89.72A37.29,37.29,0,0,0,655,72.36a13.62,13.62,0,0,0-3.89,1.94,9.29,9.29,0,0,0-2.66,3.1,10,10,0,0,0-1,4.75,9.67,9.67,0,0,0,1,4.61,7.71,7.71,0,0,0,2.74,2.95,11.53,11.53,0,0,0,4,1.51,25.51,25.51,0,0,0,4.75.43q6,0,9.36-2a13.59,13.59,0,0,0,4.9-4.83,15.53,15.53,0,0,0,1.94-5.69,39,39,0,0,0,.36-4.6Z"/><path class="cls-2" d="M732.3,28.87V39.24h.43a23.47,23.47,0,0,1,10.08-9.44,29.26,29.26,0,0,1,12.67-2.95,34.85,34.85,0,0,1,13.46,2.23,19.92,19.92,0,0,1,8.28,6.2,23.81,23.81,0,0,1,4.25,9.64,59.83,59.83,0,0,1,1.23,12.6v45.8H762.25v-42q0-9.21-2.88-13.75T749.15,43q-8.35,0-12.1,5T733.3,64.29v39H712.86V28.87Z"/><path class="cls-2" d="M797.38,51.76A23.79,23.79,0,0,1,801,39.81a24.43,24.43,0,0,1,8.07-7.63,34.92,34.92,0,0,1,11-4.1,62.4,62.4,0,0,1,12.32-1.23,84.69,84.69,0,0,1,11.37.79,35,35,0,0,1,10.51,3.1A20.75,20.75,0,0,1,862,37.15q3,4.1,3,10.87V86.76a76.48,76.48,0,0,0,.58,9.64,17.41,17.41,0,0,0,2,6.92H846.92a28.68,28.68,0,0,1-.94-3.53,29.72,29.72,0,0,1-.5-3.67,26.67,26.67,0,0,1-11.52,7,46.41,46.41,0,0,1-13.54,2,36.29,36.29,0,0,1-9.93-1.3,22.76,22.76,0,0,1-8.07-4A18.85,18.85,0,0,1,797,93,23.5,23.5,0,0,1,795.08,83a21.71,21.71,0,0,1,2.23-10.44A18.73,18.73,0,0,1,803.07,66a25.66,25.66,0,0,1,8.07-3.67,87.45,87.45,0,0,1,9.14-2q4.61-.72,9.07-1.15A55.53,55.53,0,0,0,837.27,58a13.91,13.91,0,0,0,5.47-2.52,5.52,5.52,0,0,0,1.87-4.83,10.81,10.81,0,0,0-1.07-5.25,8,8,0,0,0-2.89-3,11.32,11.32,0,0,0-4.17-1.44,34.14,34.14,0,0,0-5.11-.36q-6,0-9.51,2.59t-4,8.64Zm47.23,15.12a9.08,9.08,0,0,1-3.23,1.8,30.71,30.71,0,0,1-4.18,1.08q-2.24.43-4.68.72c-1.63.2-3.27.44-4.9.72a37.14,37.14,0,0,0-4.53,1.16,13.49,13.49,0,0,0-3.89,1.94,9.17,9.17,0,0,0-2.66,3.1,9.84,9.84,0,0,0-1,4.75,9.55,9.55,0,0,0,1,4.61,7.76,7.76,0,0,0,2.73,2.95,11.6,11.6,0,0,0,4,1.51,25.62,25.62,0,0,0,4.76.43q6,0,9.36-2a13.64,13.64,0,0,0,4.89-4.83,15.55,15.55,0,0,0,2-5.69,40.86,40.86,0,0,0,.35-4.6Z"/><path class="cls-2" d="M900.34,28.87V39.24h.43a23.58,23.58,0,0,1,10.08-9.44,29.3,29.3,0,0,1,12.68-2.95A34.89,34.89,0,0,1,937,29.08a20,20,0,0,1,8.28,6.2,23.94,23.94,0,0,1,4.25,9.64,60.53,60.53,0,0,1,1.22,12.6v45.8H930.29v-42q0-9.21-2.88-13.75T917.19,43q-8.36,0-12.1,5t-3.74,16.34v39H880.9V28.87Z"/><path class="cls-2" d="M965.43,51.76A23.79,23.79,0,0,1,969,39.81a24.49,24.49,0,0,1,8.06-7.63,35,35,0,0,1,11-4.1,62.3,62.3,0,0,1,12.31-1.23,84.84,84.84,0,0,1,11.38.79,35.12,35.12,0,0,1,10.51,3.1,20.64,20.64,0,0,1,7.77,6.41q3,4.1,3,10.87V86.76a78.45,78.45,0,0,0,.57,9.64,17.56,17.56,0,0,0,2,6.92H1015a30.54,30.54,0,0,1-.93-3.53,31.77,31.77,0,0,1-.51-3.67,26.55,26.55,0,0,1-11.52,7,46.3,46.3,0,0,1-13.53,2,36.36,36.36,0,0,1-9.94-1.3,22.72,22.72,0,0,1-8.06-4,18.64,18.64,0,0,1-5.4-6.91,23.35,23.35,0,0,1-2-9.94,21.7,21.7,0,0,1,2.24-10.44A18.53,18.53,0,0,1,971.12,66a25.71,25.71,0,0,1,8.06-3.67,87.45,87.45,0,0,1,9.14-2c3.08-.48,6.1-.86,9.08-1.15a56,56,0,0,0,7.92-1.29,14,14,0,0,0,5.47-2.52,5.58,5.58,0,0,0,1.87-4.83,10.8,10.8,0,0,0-1.08-5.25,7.93,7.93,0,0,0-2.88-3,11.31,11.31,0,0,0-4.18-1.44,34.14,34.14,0,0,0-5.11-.36q-6,0-9.5,2.59t-4,8.64Zm47.23,15.12a9,9,0,0,1-3.24,1.8,30.71,30.71,0,0,1-4.18,1.08c-1.49.29-3,.53-4.68.72s-3.26.44-4.89.72a37.29,37.29,0,0,0-4.54,1.16,13.62,13.62,0,0,0-3.89,1.94,9.29,9.29,0,0,0-2.66,3.1,10,10,0,0,0-1,4.75,9.67,9.67,0,0,0,1,4.61,7.71,7.71,0,0,0,2.74,2.95,11.53,11.53,0,0,0,4,1.51,25.51,25.51,0,0,0,4.75.43q6,0,9.36-2a13.59,13.59,0,0,0,4.9-4.83,15.53,15.53,0,0,0,1.94-5.69,39,39,0,0,0,.36-4.6Z"/></g></g></svg>